<?xml version="1.0" encoding="UTF-8" standalone="no"?>
<svg
   xmlns:dc="http://purl.org/dc/elements/1.1/"
   xmlns:cc="http://creativecommons.org/ns#"
   xmlns:rdf="http://www.w3.org/1999/02/22-rdf-syntax-ns#"
   xmlns:svg="http://www.w3.org/2000/svg"
   xmlns="http://www.w3.org/2000/svg"
   version="1.1"
   id="svg3484"
   viewBox="0 0 300 112.16667"
   height="112.16667"
   width="300">
  <defs
     id="defs3486" />
  <metadata
     id="metadata3489">
    <rdf:RDF>
      <cc:Work
         rdf:about="">
        <dc:format>image/svg+xml</dc:format>
        <dc:type
           rdf:resource="http://purl.org/dc/dcmitype/StillImage" />
        <dc:title></dc:title>
      </cc:Work>
    </rdf:RDF>
  </metadata>
  <g
     transform="translate(-275.31429,-694.24553)"
     id="layer1">
    <path
       id="path3376"
       class="g3_1"
       d="m 373.64762,783.74553 168.33334,0 0,16.66667 -168.33334,0 0,-16.66667 z"
       style="display:block;fill:#ee2d33;fill-opacity:1" />
    <path
       id="path3378"
       class="g4_1"
       d="m 543.48096,735.24553 c -7.5,0 -13.5,-5.33333 -13.5,-12.16666 0,-6.66667 6,-12 13.5,-12 7.5,0 13.66666,5.33333 13.66666,12 0,6.83333 -6.16666,12.16666 -13.66666,12.16666 m 0,-40 c -17,0 -30.83334,12.5 -30.83334,27.83334 0,15.5 13.83334,28 30.83334,28 17,0 30.83333,-12.5 30.83333,-28 0,-15.33334 -13.83333,-27.83334 -30.83333,-27.83334 z"
       style="display:block;fill:#0072bc;fill-opacity:1" />
    <path
       id="path3380"
       class="g4_1"
       d="m 374.98096,755.24553 c -7.5,0 -13.66667,-5.33333 -13.66667,-12 0,-6.83333 6.16667,-12.16666 13.66667,-12.16666 7.5,0 13.5,5.33333 13.5,12.16666 0,6.66667 -6,12 -13.5,12 m 0,-40 c -17,0 -31,12.5 -31,28 0,15.33334 14,27.83334 31,27.83334 17,0 30.83333,-12.5 30.83333,-27.83334 0,-15.5 -13.83333,-28 -30.83333,-28 z"
       style="display:block;fill:#0072bc;fill-opacity:1" />
    <path
       id="path3382"
       class="g4_1"
       d="m 307.14762,755.24553 c -7.5,0 -13.66666,-5.33333 -13.66666,-12 0,-6.83333 6.16666,-12.16666 13.66666,-12.16666 7.5,0 13.5,5.33333 13.5,12.16666 0,6.66667 -6,12 -13.5,12 m 14.33334,12.66667 c 10.16666,-4.83333 16.5,-14.33333 16.5,-24.66667 0,-15.5 -13.83334,-28 -30.83334,-28 -17,0 -30.83333,12.5 -30.83333,28 l 0,58.16667 17.16667,0 0,-33.16667 c 2,0.83334 4,1.5 6,2 0.5,0.33334 39,35.16667 39,35.16667 l 12.33333,-11.16667 c 0,0 -26.83333,-24.16666 -29.33333,-26.33333 z"
       style="display:block;fill:#0072bc;fill-opacity:1" />
    <path
       id="path3384"
       class="g4_1"
       d="m 456.98096,713.74553 -15,0 0,20 -13.33334,0 0,-20 -16.66666,0 0,56.66667 16.66666,0 0,-21.66667 13.33334,0 0,21.66667 16.66666,0 0,-56.66667 z"
       style="display:block;fill:#0072bc;fill-opacity:1" />
    <path
       id="path3386"
       class="g4_1"
       d="m 505.31429,713.74553 -41.66667,0 0,16.66667 13.33334,0 0,40 16.66666,0 0,-40 13.33334,0 0,-16.66667 z"
       style="display:block;fill:#0072bc;fill-opacity:1" />
  </g>
</svg>
